<?xml version="1.0" encoding="utf-8"?>
<!-- Generator: Adobe Illustrator 16.0.0, SVG Export Plug-In . SVG Version: 6.00 Build 0)  -->
<!DOCTYPE svg PUBLIC "-//W3C//DTD SVG 1.1//EN" "http://www.w3.org/Graphics/SVG/1.1/DTD/svg11.dtd">
<svg version="1.1" id="Layer_1" xmlns="http://www.w3.org/2000/svg" xmlns:xlink="http://www.w3.org/1999/xlink" x="0px" y="0px"
	 width="760px" height="293px" viewBox="0 0 760 293" enable-background="new 0 0 760 293" xml:space="preserve">
<g>
	<rect x="-72.282" y="-18.285" fill="none" width="904.032" height="259.678"/>
	<text transform="matrix(0.721 0 0 0.7 33.4717 240.7646)" fill="#7A6A53" font-family="'Futura-Medium'" font-size="314">roa</text>
	<text transform="matrix(0.68 0 0 1 539.7637 240.7646)" fill="#7A6A53" font-family="'Futura-Medium'" font-size="314">  </text>
	<text transform="matrix(0.588 0 0 0.7 671.5449 240.7646)" fill="#7A6A53" font-family="'Futura-Medium'" font-size="314">i</text>
	<g>
		<g>
			<path fill="#948C75" d="M632.199,116.709v-11.857h-19.728c-9.458,0-16.928,1.133-22.406,3.396
				c-5.886,2.215-11.225,5.979-16.014,11.295c-9.701,10.73-14.553,21.832-14.553,39.306c0,17.521,5.054,28.696,15.162,39.523
				c5.074,5.415,10.391,8.182,15.95,10.297c5.198,2.117,12.565,3.174,22.104,3.174h19.483v-11.586l0,0
				c-0.838-0.162-2.394-0.113-2.394-0.113l-11.793-0.469l0,0h-6.394c-6.373,0-12.67-0.812-16.892-2.436
				c-4.221-1.724-8.037-4.455-11.447-8.196c-6.981-7.728-10.474-17.792-10.474-30.194c0-12.503,3.452-22.642,10.352-30.419
				c6.21-6.939,16.365-11.409,28.461-11.409h6.394"/>
		</g>
		<g>
			<path fill="#99B2B7" d="M631.272,131.329v-10.488h-12.304c-5.897,0-10.556,0.75-13.974,2.246c-3.67,1.465-7,3.956-9.986,7.471
				c-6.05,7.099-9.076,16.426-9.076,27.982c0,11.59,3.152,20.965,9.456,28.127c3.164,3.582,6.48,6.072,9.948,7.472
				c3.241,1.4,7.835,2.099,13.784,2.099h12.151v-10.309l0,0c-0.523-0.106-1.493-0.074-1.493-0.074l-7.354-0.311l0,0h-3.987
				c-3.974,0-7.278-0.537-9.91-1.611c-2.633-1.14-5.013-2.946-7.139-5.42c-4.355-5.111-6.533-11.77-6.533-19.973
				c0-8.27,2.153-14.976,6.457-20.119c3.873-4.59,9.582-6.885,17.125-6.885h3.987"/>
		</g>
		<text transform="matrix(-0.721 0 0 0.7 675.0039 241.3926)" fill="#7A6A53" font-family="'Futura-Medium'" font-size="314">d</text>
	</g>
</g>
</svg>
